<svg width="270" height="39" viewBox="0 0 270 39" fill="none" xmlns="http://www.w3.org/2000/svg">
<path d="M67.1368 24.2401C67.1368 25.0571 67.0301 25.7944 66.817 26.4521C66.6145 27.0993 66.3428 27.6723 66.0018 28.1708C65.6608 28.6694 65.2612 29.0938 64.8028 29.4439C64.3447 29.794 63.8703 30.0806 63.3802 30.3034C62.89 30.526 62.389 30.6905 61.8775 30.7967C61.3767 30.9027 60.9024 30.9558 60.4549 30.9558H44.4213V26.8181H60.4549C61.254 26.8181 61.8722 26.5848 62.3092 26.1179C62.7567 25.6512 62.9805 25.0252 62.9805 24.2401C62.9805 23.8581 62.9218 23.508 62.8047 23.1898C62.6875 22.8716 62.517 22.5957 62.2932 22.3622C62.08 22.1289 61.8135 21.9486 61.4939 21.8212C61.1849 21.6939 60.8385 21.6302 60.4549 21.6302H50.8954C50.2241 21.6302 49.4993 21.5135 48.7215 21.2801C47.9435 21.0362 47.2188 20.649 46.5473 20.1185C45.8866 19.5879 45.3325 18.893 44.8848 18.0337C44.448 17.1744 44.2295 16.1241 44.2295 14.8828C44.2295 13.6415 44.448 12.5965 44.8848 11.7477C45.3325 10.8884 45.8866 10.1935 46.5473 9.66304C47.2188 9.12196 47.9435 8.73473 48.7215 8.50133C49.4993 8.25731 50.2241 8.13531 50.8954 8.13531H65.0427V12.2729H50.8954C50.1068 12.2729 49.4888 12.5116 49.0411 12.989C48.6041 13.4665 48.3856 14.0977 48.3856 14.8828C48.3856 15.6785 48.6041 16.3097 49.0411 16.7765C49.4888 17.2327 50.1068 17.4608 50.8954 17.4608H60.4549H60.4867C60.9344 17.4714 61.4085 17.5351 61.9095 17.6518C62.4104 17.7579 62.9058 17.9276 63.3962 18.161C63.897 18.3945 64.3713 18.6915 64.8188 19.0522C65.2665 19.4022 65.6608 19.8267 66.0018 20.3252C66.3535 20.824 66.6305 21.3969 66.833 22.044C67.0355 22.6912 67.1368 23.4233 67.1368 24.2401Z" fill="white"/>
<path d="M88.8843 21.6302H75.76V17.4608H88.8843V21.6302ZM90.7546 30.9558H75.76C75.1845 30.9558 74.5559 30.8551 73.8737 30.6535C73.1917 30.4519 72.5577 30.123 71.9716 29.6668C71.3961 29.1999 70.9111 28.6006 70.5169 27.8685C70.1332 27.1259 69.9414 26.2188 69.9414 25.1471V10.22C69.9414 9.93356 69.9946 9.66304 70.1012 9.40842C70.2077 9.1538 70.3516 8.93101 70.5327 8.74004C70.7246 8.54906 70.9484 8.40053 71.2042 8.29445C71.4599 8.18836 71.7371 8.13531 72.0354 8.13531H90.7546V12.2729H74.0975V25.1471C74.0975 25.6882 74.2415 26.102 74.5292 26.3886C74.8169 26.6749 75.2379 26.8181 75.792 26.8181H90.7546V30.9558Z" fill="white"/>
<path d="M117.139 29.1894C117.139 29.4864 117.08 29.7621 116.963 30.0168C116.856 30.2715 116.707 30.4944 116.515 30.6851C116.334 30.8655 116.116 31.0089 115.86 31.1149C115.604 31.2211 115.332 31.274 115.045 31.274C114.789 31.274 114.528 31.2264 114.261 31.1308C114.006 31.0354 113.776 30.8814 113.574 30.6694L98.3877 14.8828V30.9558H94.2314V9.90174C94.2314 9.47738 94.3486 9.09545 94.5831 8.75595C94.8283 8.40585 95.1373 8.14592 95.5103 7.97617C95.9046 7.81704 96.3096 7.77991 96.7253 7.86477C97.1407 7.93904 97.4979 8.13001 97.7962 8.43767L112.982 24.2082V8.13532H117.139V29.1894Z" fill="white"/>
<path d="M140.278 21.6302H127.154V17.4608H140.278V21.6302ZM142.148 30.9558H127.154C126.578 30.9558 125.95 30.8551 125.267 30.6535C124.585 30.4519 123.951 30.123 123.365 29.6668C122.79 29.1999 122.305 28.6006 121.91 27.8685C121.527 27.1259 121.335 26.2188 121.335 25.1471V10.22C121.335 9.93356 121.388 9.66304 121.495 9.40842C121.601 9.1538 121.745 8.93101 121.926 8.74004C122.118 8.54906 122.342 8.40053 122.598 8.29445C122.854 8.18836 123.131 8.13531 123.429 8.13531H142.148V12.2729H125.491V25.1471C125.491 25.6882 125.635 26.102 125.923 26.3886C126.211 26.6749 126.632 26.8181 127.186 26.8181H142.148V30.9558Z" fill="white"/>
<path d="M165.99 30.9558H150.996C150.612 30.9558 150.197 30.9133 149.749 30.8285C149.312 30.7329 148.875 30.5898 148.438 30.3988C148.012 30.2078 147.602 29.9637 147.207 29.6668C146.813 29.3591 146.461 28.9931 146.152 28.5687C145.854 28.1337 145.614 27.6351 145.433 27.0728C145.252 26.4999 145.161 25.8581 145.161 25.1471V13.9439C145.161 13.5619 145.204 13.1535 145.289 12.7185C145.385 12.2729 145.529 11.8379 145.721 11.4136C145.912 10.9786 146.163 10.5648 146.472 10.1723C146.781 9.77974 147.149 9.43493 147.575 9.13787C148.012 8.83021 148.513 8.5862 149.078 8.40584C149.642 8.22549 150.282 8.13531 150.996 8.13531H165.99V12.2729H150.996C150.452 12.2729 150.037 12.4161 149.749 12.7026C149.461 12.989 149.317 13.4134 149.317 13.9757V25.1471C149.317 25.6778 149.461 26.0914 149.749 26.3886C150.047 26.6749 150.463 26.8181 150.996 26.8181H165.99V30.9558Z" fill="white"/>
<path d="M191.862 30.9558H187.707V25.354H173.096V30.9558H168.939V19.5456C168.939 17.8799 169.227 16.3469 169.803 14.9464C170.378 13.546 171.177 12.3419 172.2 11.334C173.224 10.3261 174.433 9.54104 175.829 8.97874C177.225 8.41644 178.749 8.13531 180.401 8.13531H189.769C190.056 8.13531 190.328 8.18836 190.584 8.29445C190.839 8.40053 191.064 8.54906 191.255 8.74004C191.446 8.93101 191.595 9.1538 191.702 9.40842C191.809 9.66304 191.862 9.93356 191.862 10.22V30.9558ZM173.096 21.2166H187.707V12.2729H180.401C180.273 12.2729 180.001 12.2941 179.586 12.3366C179.181 12.3684 178.707 12.4586 178.163 12.6071C177.63 12.7556 177.065 12.9837 176.469 13.2914C175.872 13.5991 175.323 14.0234 174.822 14.5645C174.321 15.1056 173.906 15.7846 173.575 16.6015C173.255 17.4078 173.096 18.3892 173.096 19.5456V21.2166Z" fill="white"/>
<path d="M217.206 30.9558H198.247C197.949 30.9558 197.674 30.9027 197.416 30.7967C197.16 30.6905 196.938 30.5473 196.745 30.3669C196.564 30.176 196.421 29.9531 196.314 29.6986C196.208 29.4439 196.154 29.1682 196.154 28.871V8.13531H200.311V26.8181H217.206V30.9558Z" fill="white"/>
<path d="M242.2 30.9558H238.045V25.354H223.434V30.9558H219.277V19.5456C219.277 17.8799 219.564 16.3469 220.14 14.9464C220.716 13.546 221.516 12.3419 222.538 11.334C223.561 10.3261 224.771 9.54104 226.167 8.97874C227.563 8.41644 229.086 8.13531 230.739 8.13531H240.107C240.394 8.13531 240.666 8.18836 240.921 8.29445C241.177 8.40053 241.402 8.54906 241.593 8.74004C241.784 8.93101 241.933 9.1538 242.04 9.40842C242.146 9.66304 242.2 9.93356 242.2 10.22V30.9558ZM223.434 21.2166H238.045V12.2729H230.739C230.611 12.2729 230.339 12.2941 229.923 12.3366C229.518 12.3684 229.044 12.4586 228.501 12.6071C227.968 12.7556 227.403 12.9837 226.805 13.2914C226.209 13.5991 225.661 14.0234 225.159 14.5645C224.659 15.1056 224.243 15.7846 223.912 16.6015C223.592 17.4078 223.434 18.3892 223.434 19.5456V21.2166Z" fill="white"/>
<path d="M269.368 25.9429C269.368 26.4521 269.278 26.9985 269.095 27.582C268.926 28.1655 268.637 28.7066 268.233 29.2052C267.839 29.7039 267.322 30.123 266.682 30.4625C266.042 30.7913 265.259 30.9558 264.332 30.9558H248.555C248.257 30.9558 247.979 30.9027 247.724 30.7967C247.468 30.6905 247.243 30.5473 247.052 30.3669C246.87 30.176 246.727 29.9531 246.62 29.6986C246.513 29.4439 246.46 29.1682 246.46 28.871V10.22C246.46 9.93356 246.513 9.66304 246.62 9.40842C246.727 9.1538 246.87 8.93101 247.052 8.74004C247.243 8.54906 247.468 8.40053 247.724 8.29445C247.979 8.18836 248.257 8.13531 248.555 8.13531H262.461C262.974 8.13531 263.523 8.22549 264.109 8.40584C264.694 8.5862 265.239 8.87794 265.739 9.28111C266.25 9.67364 266.671 10.1882 267.002 10.8247C267.343 11.4613 267.514 12.2411 267.514 13.1641V13.9439C267.514 14.6759 267.39 15.4663 267.146 16.315C266.901 17.1532 266.506 17.9489 265.963 18.7021C266.432 18.9886 266.868 19.3334 267.275 19.7366C267.69 20.1396 268.053 20.6065 268.362 21.1369C268.671 21.6674 268.915 22.2668 269.095 22.9351C269.278 23.6036 269.368 24.341 269.368 25.1471V25.9429ZM265.211 25.1471C265.211 24.6061 265.126 24.1234 264.955 23.699C264.786 23.2642 264.545 22.8928 264.236 22.585C263.927 22.2774 263.554 22.044 263.118 21.8849C262.68 21.7151 262.191 21.6302 261.647 21.6302H252.279V17.4608H259.776C260.32 17.4608 260.81 17.3813 261.247 17.2221C261.685 17.0524 262.057 16.8137 262.366 16.506C262.675 16.1983 262.91 15.8323 263.07 15.4079C263.239 14.973 263.326 14.4849 263.326 13.9439V13.1641C263.326 12.57 263.037 12.2729 262.461 12.2729H250.617V26.8181H264.332C264.407 26.8181 264.497 26.8128 264.604 26.8022C264.711 26.7916 264.806 26.7599 264.893 26.7068C264.977 26.6537 265.051 26.5636 265.115 26.4362C265.18 26.3089 265.211 26.1339 265.211 25.911V25.1471Z" fill="white"/>
<path fill-rule="evenodd" clip-rule="evenodd" d="M43.8696 31.505V26.2688H60.4549C61.1415 26.2688 61.5976 26.0723 61.9055 25.7435L61.9077 25.7411L61.9101 25.7387C62.2393 25.3952 62.4288 24.9162 62.4288 24.2401C62.4288 23.9145 62.3789 23.6294 62.2866 23.3789C62.1943 23.1277 62.0629 22.9175 61.8941 22.7416L61.8893 22.7366L61.8849 22.7317C61.7328 22.5651 61.5378 22.4303 61.289 22.3313L61.2859 22.33L61.2829 22.3287C61.0499 22.2327 60.7766 22.1795 60.4549 22.1795H50.8955C50.1601 22.1795 49.3814 22.0518 48.5622 21.8061L48.5589 21.805L48.5556 21.8041C47.7101 21.5388 46.9258 21.1188 46.2043 20.5486L46.2026 20.5473L46.201 20.546C45.4728 19.9614 44.8727 19.2036 44.395 18.2866L44.3938 18.2842L44.3926 18.2818C43.9069 17.3266 43.6777 16.1862 43.6777 14.8828C43.6777 13.5797 43.9067 12.4433 44.3939 11.4972L44.3945 11.496L44.395 11.4949C44.8727 10.578 45.4726 9.82036 46.2006 9.23575C46.9231 8.65366 47.7095 8.23167 48.5589 7.97638C49.3783 7.71969 50.1583 7.58601 50.8955 7.58601H65.5945V12.8222H50.8955C50.2278 12.8222 49.7691 13.019 49.4467 13.3614C49.1228 13.7167 48.9374 14.2051 48.9374 14.8828C48.9374 15.5722 49.1234 16.056 49.4404 16.3973C49.7608 16.7214 50.2219 16.9115 50.8955 16.9115H60.4933L60.4999 16.9117C60.9888 16.9233 61.4994 16.9924 62.0298 17.1157C62.5731 17.2312 63.1074 17.4149 63.6322 17.6645C64.1733 17.9168 64.6835 18.2368 65.163 18.6228C65.6555 19.0086 66.0861 19.4733 66.4556 20.0129C66.8426 20.5622 67.1427 21.1865 67.3599 21.8806C67.5819 22.5902 67.6886 23.3788 67.6886 24.2401C67.6886 25.1032 67.576 25.8978 67.343 26.6183C67.1264 27.3099 66.8326 27.9321 66.458 28.4799C66.0855 29.0246 65.646 29.4922 65.1389 29.8797C64.6498 30.2532 64.14 30.5617 63.6094 30.803C63.0833 31.042 62.5437 31.2194 61.9912 31.3342C61.4582 31.447 60.9458 31.505 60.4549 31.505H43.8696ZM61.8775 30.7966C62.389 30.6904 62.89 30.526 63.3802 30.3034C63.8703 30.0805 64.3447 29.794 64.8028 29.4439C65.2612 29.0938 65.6608 28.6694 66.0018 28.1708C66.3428 27.6722 66.6145 27.0993 66.817 26.4521C67.0302 25.7944 67.1368 25.057 67.1368 24.2401C67.1368 23.4233 67.0355 22.6912 66.833 22.044C66.6305 21.3969 66.3535 20.824 66.0018 20.3252C65.6608 19.8266 65.2665 19.4022 64.8188 19.0521C64.3714 18.6914 63.897 18.3945 63.3962 18.161C62.9059 17.9276 62.4104 17.7579 61.9095 17.6518C61.4085 17.5351 60.9344 17.4714 60.4867 17.4608H50.8955C50.1068 17.4608 49.4888 17.2327 49.0411 16.7765C48.6041 16.3097 48.3856 15.6785 48.3856 14.8828C48.3856 14.0977 48.6041 13.4664 49.0411 12.989C49.4888 12.5116 50.1068 12.2729 50.8955 12.2729H65.0427V8.1353H50.8955C50.2241 8.1353 49.4993 8.2573 48.7215 8.50132C47.9435 8.73471 47.2188 9.12195 46.5473 9.66303C45.8867 10.1935 45.3325 10.8884 44.8848 11.7477C44.448 12.5965 44.2295 13.6415 44.2295 14.8828C44.2295 16.124 44.448 17.1744 44.8848 18.0337C45.3325 18.893 45.8867 19.5879 46.5473 20.1185C47.2188 20.6489 47.9435 21.0362 48.7215 21.2801C49.4993 21.5135 50.2241 21.6302 50.8955 21.6302H60.4549C60.8386 21.6302 61.1849 21.6939 61.4939 21.8211C61.8135 21.9486 62.08 22.1289 62.2932 22.3622C62.517 22.5957 62.6875 22.8716 62.8047 23.1898C62.9219 23.508 62.9805 23.8581 62.9805 24.2401C62.9805 25.0252 62.7567 25.6512 62.3092 26.1179C61.8722 26.5848 61.254 26.8181 60.4549 26.8181H44.4213V30.9557H60.4549C60.9024 30.9557 61.3767 30.9027 61.8775 30.7966ZM89.4367 22.1795H75.2089V16.9115H89.4367V22.1795ZM91.307 31.505H75.7606C75.1213 31.505 74.439 31.3932 73.7174 31.18C72.9659 30.9579 72.2703 30.5961 71.6323 30.0994L71.6279 30.0961L71.6237 30.0926C70.9851 29.5746 70.4557 28.916 70.0312 28.128L70.0288 28.1239L70.0268 28.1197C69.5931 27.2804 69.3903 26.2822 69.3903 25.1471V10.22C69.3903 9.86388 69.4569 9.52127 69.5926 9.19713C69.7235 8.88427 69.903 8.60455 70.1322 8.36286L70.1377 8.35717L70.1433 8.35162C70.3871 8.10881 70.6719 7.92048 70.9926 7.7874C71.3207 7.65132 71.6706 7.58601 72.036 7.58601H91.307V12.8222H74.6499V25.1471C74.6499 25.5932 74.7667 25.8475 74.9199 26C75.0713 26.1507 75.3306 26.2688 75.7927 26.2688H91.307V31.505ZM74.0982 12.2729H90.7552V8.1353H72.036C71.7377 8.1353 71.4605 8.18835 71.2049 8.29444C70.949 8.40052 70.7252 8.54905 70.5334 8.74002C70.3522 8.931 70.2084 9.15379 70.1019 9.40841C69.9952 9.66302 69.942 9.93355 69.942 10.22V25.1471C69.942 26.2188 70.1339 27.1259 70.5175 27.8685C70.9117 28.6006 71.3967 29.2 71.9722 29.6667C72.5584 30.123 73.1923 30.4519 73.8743 30.6535C74.5565 30.855 75.1852 30.9557 75.7606 30.9557H90.7552V26.8181H75.7927C75.2385 26.8181 74.8175 26.6749 74.5298 26.3885C74.2422 26.102 74.0982 25.6882 74.0982 25.1471V12.2729ZM97.7965 8.43766L112.983 24.2082V8.1353H117.139V29.1894C117.139 29.4864 117.08 29.7621 116.963 30.0168C116.857 30.2715 116.707 30.4943 116.516 30.6851C116.334 30.8657 116.116 31.0088 115.86 31.1149C115.604 31.2211 115.333 31.274 115.045 31.274C114.789 31.274 114.528 31.2264 114.262 31.1308C114.006 31.0354 113.777 30.8814 113.574 30.6694L98.388 14.8828V30.9557H94.2317V9.90173C94.2317 9.47736 94.3489 9.09544 94.5834 8.75594C94.8286 8.40583 95.1376 8.14591 95.5106 7.97616C95.9049 7.81702 96.3099 7.77989 96.7256 7.86476C97.141 7.93902 97.4982 8.12999 97.7965 8.43766ZM96.8297 7.32531C96.3095 7.22036 95.796 7.26822 95.3033 7.4671L95.2921 7.47161L95.2812 7.47659C94.8142 7.68906 94.4296 8.01495 94.1308 8.44185L94.1298 8.44329L94.1287 8.44474C93.8291 8.87869 93.68 9.36979 93.68 9.90173V31.505H98.9398V16.2505L113.174 31.0477C113.174 31.0477 113.175 31.048 113.175 31.0484C113.43 31.3157 113.728 31.5184 114.068 31.6451L114.071 31.6464L114.075 31.6477C114.395 31.7623 114.719 31.8233 115.045 31.8233C115.403 31.8233 115.747 31.757 116.072 31.6219C116.389 31.4906 116.67 31.3088 116.906 31.0737C117.147 30.8331 117.335 30.5528 117.469 30.2371C117.618 29.9088 117.691 29.5572 117.691 29.1894V7.58601H112.431V22.8416L98.1949 8.05754L98.1935 8.05611C97.8177 7.66859 97.3588 7.42124 96.8297 7.32531ZM140.83 22.1795H126.602V16.9115H140.83V22.1795ZM142.7 31.505H127.154C126.514 31.505 125.832 31.3932 125.11 31.18C124.359 30.9579 123.663 30.5961 123.025 30.0994L123.021 30.0961L123.017 30.0926C122.378 29.5746 121.849 28.916 121.424 28.128L121.422 28.1239L121.42 28.1197C120.986 27.2804 120.783 26.2822 120.783 25.1471V10.22C120.783 9.86388 120.85 9.52127 120.985 9.19713C121.116 8.88427 121.296 8.60455 121.525 8.36286L121.531 8.35717L121.536 8.35162C121.78 8.10881 122.065 7.92048 122.386 7.7874C122.714 7.65132 123.063 7.58601 123.429 7.58601H142.7V12.8222H126.043V25.1471C126.043 25.5932 126.16 25.8475 126.313 26C126.464 26.1507 126.724 26.2688 127.186 26.2688H142.7V31.505ZM125.491 12.2729H142.148V8.1353H123.429C123.131 8.1353 122.854 8.18835 122.598 8.29444C122.342 8.40052 122.118 8.54905 121.926 8.74002C121.745 8.931 121.601 9.15379 121.495 9.40841C121.388 9.66302 121.335 9.93355 121.335 10.22V25.1471C121.335 26.2188 121.527 27.1259 121.91 27.8685C122.305 28.6006 122.79 29.2 123.365 29.6667C123.951 30.123 124.585 30.4519 125.267 30.6535C125.95 30.855 126.578 30.9557 127.154 30.9557H142.148V26.8181H127.186C126.632 26.8181 126.211 26.6749 125.923 26.3885C125.635 26.102 125.491 25.6882 125.491 25.1471V12.2729ZM166.542 31.505H150.996C150.572 31.505 150.121 31.4582 149.646 31.3681L149.638 31.3666L149.631 31.365C149.156 31.2612 148.685 31.1063 148.216 30.9017L148.214 30.9006L148.212 30.8997C147.746 30.6908 147.3 30.4253 146.874 30.1047L146.871 30.102L146.867 30.099C146.43 29.7583 146.043 29.3547 145.706 28.8911L145.701 28.8849L145.697 28.8785C145.365 28.3947 145.103 27.8473 144.908 27.2405L144.907 27.2392L144.907 27.2377C144.706 26.6028 144.609 25.9041 144.609 25.1471V13.9439C144.609 13.5215 144.656 13.0776 144.747 12.6133L144.748 12.6083L144.75 12.6034C144.854 12.1199 145.01 11.6487 145.216 11.1904C145.428 10.7121 145.702 10.2597 146.038 9.83342C146.381 9.39706 146.789 9.01555 147.257 8.68887C147.745 8.34583 148.297 8.07831 148.909 7.88278C149.538 7.68192 150.236 7.58601 150.996 7.58601H166.542V12.8222H150.996C150.548 12.8222 150.292 12.9385 150.139 13.091C149.99 13.2398 149.869 13.5015 149.869 13.9757V25.1471C149.869 25.5716 149.98 25.8319 150.139 26C150.308 26.1582 150.57 26.2688 150.996 26.2688H166.542V31.505ZM149.749 26.3885C149.461 26.0914 149.317 25.6777 149.317 25.1471V13.9757C149.317 13.4134 149.461 12.989 149.749 12.7026C150.037 12.4161 150.452 12.2729 150.996 12.2729H165.99V8.1353H150.996C150.282 8.1353 149.642 8.22548 149.078 8.40583C148.513 8.58618 148.012 8.8302 147.575 9.13786C147.149 9.43492 146.781 9.77973 146.472 10.1723C146.163 10.5648 145.912 10.9786 145.721 11.4135C145.529 11.8379 145.385 12.2729 145.289 12.7185C145.204 13.1535 145.161 13.5619 145.161 13.9439V25.1471C145.161 25.8581 145.252 26.4999 145.433 27.0728C145.614 27.6351 145.854 28.1337 146.152 28.5687C146.461 28.9931 146.813 29.3591 147.207 29.6667C147.602 29.9637 148.012 30.2078 148.438 30.3988C148.875 30.5897 149.312 30.7329 149.749 30.8285C150.197 30.9133 150.612 30.9557 150.996 30.9557H165.99V26.8181H150.996C150.463 26.8181 150.047 26.6749 149.749 26.3885ZM192.414 31.505H187.156V25.9033H173.647V31.505H168.388V19.5456C168.388 17.8158 168.687 16.2112 169.292 14.7384C169.894 13.2735 170.734 12.0063 171.812 10.9435C172.89 9.88218 174.162 9.05779 175.622 8.46953C177.09 7.87831 178.685 7.58601 180.401 7.58601H189.769C190.126 7.58601 190.47 7.65233 190.795 7.7874C191.117 7.92048 191.402 8.10881 191.645 8.35162C191.89 8.59441 192.079 8.87773 192.212 9.19713C192.348 9.52127 192.414 9.86388 192.414 10.22V31.505ZM173.096 25.354H187.707V30.9557H191.862V10.22C191.862 9.93355 191.809 9.66302 191.702 9.40841C191.595 9.15379 191.446 8.931 191.255 8.74002C191.064 8.54905 190.839 8.40052 190.584 8.29444C190.328 8.18835 190.056 8.1353 189.769 8.1353H180.401C178.749 8.1353 177.225 8.41643 175.829 8.97873C174.433 9.54103 173.224 10.3261 172.2 11.334C171.178 12.3418 170.378 13.546 169.803 14.9464C169.227 16.3468 168.94 17.8799 168.94 19.5456V30.9557H173.096V25.354ZM179.636 12.8836L179.629 12.8842C179.27 12.9124 178.832 12.994 178.311 13.1363C177.821 13.2729 177.292 13.4854 176.722 13.7792C176.188 14.0546 175.69 14.438 175.228 14.9367C174.78 15.4201 174.398 16.0389 174.088 16.8054C173.801 17.5296 173.647 18.4377 173.647 19.5456V20.6673H187.156V12.8222H180.401C180.307 12.8222 180.064 12.8399 179.642 12.883L179.636 12.8836ZM180.401 12.2729C180.273 12.2729 180.001 12.2941 179.586 12.3366C179.181 12.3684 178.707 12.4586 178.163 12.6071C177.63 12.7556 177.065 12.9837 176.469 13.2914C175.872 13.599 175.323 14.0234 174.822 14.5645C174.321 15.1056 173.906 15.7845 173.575 16.6015C173.255 17.4078 173.096 18.3891 173.096 19.5456V21.2166H187.707V12.2729H180.401ZM217.759 31.505H198.248C197.884 31.505 197.532 31.4397 197.205 31.3036C196.891 31.1733 196.609 30.9946 196.366 30.7662L196.355 30.7554L196.344 30.7441C196.116 30.5024 195.936 30.2226 195.805 29.9099C195.669 29.5832 195.603 29.235 195.603 28.871V7.58601H200.863V26.2688H217.759V31.505ZM200.312 26.8181V8.1353H196.155V28.871C196.155 29.1682 196.208 29.4439 196.315 29.6986C196.422 29.9531 196.565 30.1759 196.745 30.3669C196.938 30.5473 197.161 30.6904 197.417 30.7966C197.674 30.9027 197.95 30.9557 198.248 30.9557H217.207V26.8181H200.312ZM242.752 31.505H237.494V25.9033H223.986V31.505H218.726V19.5456C218.726 17.8158 219.024 16.2112 219.629 14.7384C220.232 13.2735 221.071 12.0063 222.151 10.9435C223.228 9.88218 224.499 9.05779 225.96 8.46953C227.427 7.87831 229.024 7.58601 230.74 7.58601H240.107C240.464 7.58601 240.808 7.65233 241.133 7.7874C241.455 7.92048 241.74 8.10881 241.983 8.35162C242.228 8.59441 242.417 8.87773 242.55 9.19713C242.686 9.52127 242.752 9.86388 242.752 10.22V31.505ZM223.434 25.354H238.045V30.9557H242.2V10.22C242.2 9.93355 242.147 9.66302 242.04 9.40841C241.934 9.15379 241.785 8.931 241.593 8.74002C241.402 8.54905 241.178 8.40052 240.922 8.29444C240.666 8.18835 240.394 8.1353 240.107 8.1353H230.74C229.086 8.1353 227.564 8.41643 226.168 8.97873C224.772 9.54103 223.561 10.3261 222.539 11.334C221.516 12.3418 220.716 13.546 220.14 14.9464C219.565 16.3468 219.278 17.8799 219.278 19.5456V30.9557H223.434V25.354ZM229.973 12.8836L229.967 12.8842C229.607 12.9124 229.169 12.994 228.649 13.1363C228.159 13.2729 227.63 13.4854 227.06 13.7792C226.526 14.0546 226.028 14.438 225.566 14.9367C225.119 15.4201 224.735 16.0389 224.426 16.8054C224.139 17.5296 223.986 18.4377 223.986 19.5456V20.6673H237.494V12.8222H230.74C230.644 12.8222 230.402 12.8399 229.98 12.883L229.973 12.8836ZM230.74 12.2729C230.611 12.2729 230.339 12.2941 229.923 12.3366C229.519 12.3684 229.044 12.4586 228.502 12.6071C227.968 12.7556 227.404 12.9837 226.806 13.2914C226.21 13.599 225.662 14.0234 225.16 14.5645C224.659 15.1056 224.244 15.7845 223.913 16.6015C223.593 17.4078 223.434 18.3891 223.434 19.5456V21.2166H238.045V12.2729H230.74ZM266.938 30.9488L266.936 30.9504C266.199 31.3295 265.323 31.505 264.332 31.505H248.555C248.189 31.505 247.839 31.4397 247.512 31.3036C247.197 31.1733 246.916 30.9946 246.673 30.7662L246.662 30.7554L246.651 30.7441C246.421 30.5024 246.243 30.2226 246.11 29.9099C245.974 29.5832 245.908 29.235 245.908 28.871V10.22C245.908 9.86388 245.976 9.52127 246.11 9.19713C246.243 8.88427 246.421 8.60455 246.651 8.36286L246.657 8.35717L246.662 8.35162C246.905 8.10881 247.19 7.92048 247.512 7.7874C247.839 7.65132 248.189 7.58601 248.555 7.58601H262.461C263.039 7.58601 263.642 7.68757 264.271 7.88104C264.926 8.08239 265.529 8.40706 266.081 8.84972C266.66 9.29544 267.129 9.87284 267.49 10.5691C267.883 11.3038 268.065 12.1767 268.065 13.1641V13.9439C268.065 14.7365 267.933 15.5785 267.675 16.4668V16.4686C267.464 17.1956 267.148 17.8902 266.73 18.5517C267.057 18.7883 267.367 19.0531 267.661 19.3455C268.113 19.7851 268.507 20.2914 268.838 20.8613C269.174 21.4383 269.437 22.0832 269.629 22.7921C269.824 23.5141 269.919 24.3003 269.919 25.1471V25.9429C269.919 26.5154 269.818 27.1154 269.625 27.7396C269.432 28.3944 269.11 28.9979 268.663 29.5481C268.216 30.1128 267.639 30.5773 266.942 30.9471L266.938 30.9488ZM268.233 29.2051C268.637 28.7066 268.926 28.1655 269.095 27.582C269.277 26.9984 269.368 26.4521 269.368 25.9429V25.1471C269.368 24.3409 269.277 23.6036 269.095 22.9351C268.915 22.2668 268.671 21.6673 268.362 21.1369C268.053 20.6065 267.69 20.1396 267.275 19.7366C267.004 19.4678 266.719 19.225 266.421 19.0082C266.272 18.8996 266.119 18.7976 265.963 18.7021C266.072 18.5517 266.175 18.3996 266.27 18.2457C266.658 17.6293 266.949 16.9857 267.146 16.315C267.39 15.4663 267.514 14.6759 267.514 13.9439V13.1641C267.514 12.2411 267.343 11.4613 267.002 10.8247C266.671 10.1882 266.25 9.67363 265.739 9.2811C265.238 8.87793 264.694 8.58618 264.109 8.40583C263.522 8.22548 262.974 8.1353 262.461 8.1353H248.555C248.257 8.1353 247.979 8.18835 247.723 8.29444C247.468 8.40052 247.243 8.54905 247.052 8.74002C246.87 8.931 246.727 9.15379 246.62 9.40841C246.513 9.66302 246.46 9.93355 246.46 10.22V28.871C246.46 29.1682 246.513 29.4439 246.62 29.6986C246.727 29.9531 246.87 30.1759 247.052 30.3669C247.243 30.5473 247.468 30.6904 247.723 30.7966C247.979 30.9027 248.257 30.9557 248.555 30.9557H264.332C265.259 30.9557 266.042 30.7913 266.682 30.4625C267.322 30.123 267.839 29.7039 268.233 29.2051ZM264.442 23.901V23.8988C264.297 23.5293 264.098 23.2237 263.846 22.9736C263.598 22.7258 263.294 22.5341 262.928 22.4007L262.923 22.3986L262.917 22.3966C262.553 22.2553 262.132 22.1795 261.646 22.1795H251.727V16.9115H259.776C260.263 16.9115 260.686 16.8406 261.052 16.7082C261.42 16.5642 261.726 16.3664 261.976 16.1176C262.228 15.8677 262.419 15.5691 262.553 15.2151L262.555 15.2116V15.2082C262.697 14.8462 262.774 14.4273 262.774 13.9439V13.1641C262.774 12.9468 262.721 12.8856 262.713 12.877C262.708 12.8721 262.66 12.8222 262.461 12.8222H251.168V26.2688H264.332C264.383 26.2688 264.453 26.2651 264.549 26.2556C264.567 26.2538 264.58 26.2503 264.589 26.2466C264.595 26.2378 264.608 26.2203 264.622 26.1906C264.632 26.1707 264.659 26.0919 264.659 25.911V25.1471C264.659 24.6634 264.584 24.2518 264.444 23.903L264.442 23.901ZM250.617 26.8181V12.2729H262.461C263.037 12.2729 263.326 12.57 263.326 13.1641V13.9439C263.326 14.4849 263.239 14.9729 263.07 15.4079C262.91 15.8323 262.675 16.1983 262.366 16.506C262.057 16.8137 261.685 17.0524 261.247 17.2221C260.81 17.3812 260.32 17.4608 259.776 17.4608H252.279V21.6302H261.646C262.191 21.6302 262.68 21.7151 263.118 21.8849C263.554 22.044 263.927 22.2774 264.236 22.585C264.545 22.8928 264.786 23.2641 264.955 23.699C265.126 24.1234 265.211 24.6061 265.211 25.1471V25.911C265.211 26.1339 265.18 26.3089 265.115 26.4361C265.051 26.5636 264.977 26.6537 264.893 26.7068C264.806 26.7599 264.711 26.7917 264.604 26.8022C264.497 26.8128 264.407 26.8181 264.332 26.8181H250.617ZM88.8849 21.6302V17.4608H75.7606V21.6302H88.8849ZM140.278 21.6302V17.4608H127.154V21.6302H140.278Z" fill="white"/>
<path fill-rule="evenodd" clip-rule="evenodd" d="M0 19.4205L5.25871 14.1854L10.6871 19.5894L5.42836 24.8245L0 19.4205ZM24.9364 5.40401L13.2316 17.0563L7.80324 11.6523L19.5081 0L24.9364 5.40401ZM7.97289 27.3577L12.2137 31.5796L31.7219 12.159L27.481 7.93713L7.97289 27.3577ZM29.3469 19.5894L34.2663 14.6921L39.0161 19.4205L34.0967 24.3179L29.3469 19.5894ZM26.8025 22.1225L14.7583 34.1126L19.5081 38.8411L31.5521 26.8511L26.8025 22.1225Z" fill="white"/>
</svg>
