<svg width="83" height="92" viewBox="0 0 83 92" fill="none" xmlns="http://www.w3.org/2000/svg">
<path d="M30.0097 89.6412C50.8739 95.1107 72.2223 82.6338 77.6917 61.7697L80.8605 49.8197C86.3299 28.9555 73.8531 7.60717 52.9889 2.13773C32.1247 -3.33171 10.7764 9.14513 5.30693 30.0093L2.13817 41.9593C-3.33378 62.8209 9.14557 84.1693 30.0097 89.6412Z" fill="#FFFBEF"/>
<path d="M30.0092 89.6411L30.2249 88.8157C33.474 89.6687 36.7331 90.0752 39.9395 90.0752C48.4096 90.0752 56.5184 87.2351 63.0692 82.2499C69.6199 77.2621 74.6127 70.1368 76.8632 61.5538L80.0319 49.6013L80.0319 49.6038C80.885 46.3548 81.2914 43.0957 81.2914 39.8893C81.2914 31.4192 78.4513 23.3104 73.4661 16.7596C68.4784 10.2088 61.3531 5.21608 52.77 2.96558L52.9858 2.14014L52.9858 2.99318L52.8754 2.99318L52.77 2.96558C49.521 2.11255 46.2619 1.70611 43.0555 1.70611C34.5854 1.70611 26.4766 4.5462 19.9258 9.53142C13.375 14.5191 8.38229 21.6445 6.13179 30.2275L2.96303 42.18L2.96303 42.1775C2.11 45.4265 1.70355 48.6856 1.70355 51.892C1.70355 60.3621 4.54364 68.4709 9.52886 75.0217C14.5166 81.5725 21.6419 86.5652 30.2249 88.8157L30.0092 89.6411L29.7934 90.4666C20.834 88.1182 13.3801 82.8972 8.17405 76.0554C2.96805 69.2135 -1.3566e-06 60.7459 -1.74362e-06 51.892C-1.89013e-06 48.5401 0.426511 45.1355 1.31467 41.7434L4.48343 29.7909L4.48343 29.7934C6.83178 20.8341 12.0528 13.3801 18.8947 8.17409C25.7365 2.96809 34.2041 3.66519e-05 43.058 3.62648e-05C46.4099 3.61183e-05 49.8145 0.424047 53.2066 1.31472L52.9908 2.14014L52.9908 1.28711L53.1012 1.28711L53.2066 1.31472C62.1659 3.66306 69.6199 8.88412 74.8259 15.7259C80.0319 22.5678 83 31.0353 83 39.8893C83 43.2412 82.576 46.6458 81.6853 50.0379L81.6853 50.0404L78.5166 61.9904L78.5166 61.9879C76.1682 70.9497 70.9472 78.4012 64.1053 83.6072C57.2635 88.8132 48.7959 91.7812 39.942 91.7812C36.59 91.7812 33.1854 91.3547 29.7934 90.4666L30.0092 89.6411Z" fill="#020202"/>
<path d="M17.269 23.1725L16.8751 23.6417L15.5353 22.5152L16.4285 21.4514C16.6117 21.2331 16.8174 21.1177 17.0432 21.1027C17.269 21.0876 17.4798 21.1629 17.6729 21.3234C17.9339 21.5417 18.0418 21.8001 17.9966 22.0987L17.136 21.9783L16.9378 23.1248L17.269 23.1725ZM18.6389 23.3607L20.7087 23.6542L21.5919 22.5904L19.1607 22.2568C19.2059 21.9231 19.1683 21.5969 19.0453 21.2733C18.9224 20.9521 18.7141 20.6686 18.4231 20.4227C18.1998 20.2371 17.959 20.1016 17.7005 20.0188C17.4421 19.936 17.1837 19.9059 16.9278 19.9285C16.6719 19.9511 16.4235 20.0263 16.1801 20.1543C15.9368 20.2822 15.7185 20.4629 15.5253 20.6937L13.877 22.6557L18.3679 26.4241L19.1206 25.5259L17.7683 24.3893L18.6389 23.3607Z" fill="#020202"/>
<path d="M25.4711 18.3728L26.3643 18.8571L27.4005 18.0893L21.7278 14.9984L20.8547 15.6482L22.1694 21.9731L23.2056 21.2054L22.9999 20.2119L25.4711 18.3728ZM22.7339 18.9449L22.2472 16.6166L24.3346 17.7582L22.7339 18.9449Z" fill="#020202"/>
<path d="M26.3466 14.0319C26.4645 14.2853 26.6075 14.4784 26.7781 14.6164C26.9462 14.7544 27.1268 14.8498 27.3225 14.9075C27.5157 14.9652 27.7164 14.9928 27.9222 14.9928C28.1279 14.9928 28.3261 14.9777 28.5168 14.9501C28.6673 14.9301 28.8078 14.91 28.9383 14.8924C29.0687 14.8749 29.1892 14.8698 29.297 14.8774C29.4049 14.8849 29.5003 14.9125 29.5805 14.9576C29.6608 15.0028 29.7236 15.0756 29.7687 15.1709C29.8365 15.3164 29.8365 15.4594 29.7662 15.5974C29.696 15.7354 29.5555 15.8533 29.3497 15.9512C28.9006 16.1619 28.5143 16.0616 28.1931 15.6501L27.4354 16.5031C27.596 16.7164 27.7741 16.882 27.9673 16.9974C28.1605 17.1128 28.3612 17.1881 28.572 17.2232C28.7827 17.2583 28.9935 17.2558 29.2067 17.2182C29.42 17.1805 29.6307 17.1128 29.839 17.015C30.0823 16.9021 30.2931 16.7616 30.4712 16.596C30.6493 16.4304 30.7848 16.2472 30.8751 16.0465C30.9655 15.8458 31.0106 15.63 31.0106 15.3967C31.0081 15.1634 30.9504 14.9225 30.835 14.6741C30.7196 14.4258 30.5816 14.2351 30.4235 14.0996C30.2655 13.9641 30.0924 13.8663 29.9092 13.8086C29.7261 13.7509 29.5304 13.7207 29.3271 13.7207C29.1239 13.7207 28.9157 13.7333 28.7049 13.7559C28.5419 13.7759 28.3913 13.7935 28.2533 13.8086C28.1153 13.8236 27.9924 13.8261 27.8845 13.8186C27.7766 13.8111 27.6838 13.786 27.606 13.7458C27.5283 13.7057 27.468 13.6354 27.4229 13.5401C27.3602 13.4096 27.3627 13.2717 27.4254 13.1312C27.4881 12.9907 27.6286 12.8702 27.8469 12.7674C28.0601 12.667 28.2584 12.6369 28.4415 12.6745C28.6247 12.7122 28.8028 12.8376 28.9709 13.0559L29.7537 12.2179C29.4526 11.824 29.0888 11.5857 28.6673 11.5054C28.2458 11.4251 27.8093 11.4903 27.3576 11.7011C27.1143 11.814 26.9035 11.9545 26.7254 12.1201C26.5473 12.2856 26.4118 12.4713 26.319 12.6745C26.2261 12.8778 26.181 13.0935 26.181 13.3218C26.1759 13.5552 26.2337 13.791 26.3466 14.0319Z" fill="#020202"/>
<path d="M34.0317 15.3294L33.3543 11.99L35.936 14.9456L36.8794 14.7549L38.1087 11.0291L38.7836 14.3685L39.9327 14.1377L38.7711 8.38975L37.6621 8.61556L36.1066 13.3474L32.8275 9.59152L31.7185 9.81732L32.8801 15.5627L34.0317 15.3294Z" fill="#020202"/>
<path d="M47.3649 8.69796L46.1957 8.61266L45.9699 11.7538C45.9524 11.9922 45.8972 12.2054 45.8068 12.3886C45.714 12.5717 45.5961 12.7248 45.4456 12.8502C45.2975 12.9732 45.1269 13.0635 44.9337 13.1187C44.7431 13.1739 44.5348 13.1939 44.3115 13.1789C44.0882 13.1638 43.885 13.1137 43.7019 13.0309C43.5187 12.9481 43.3607 12.8352 43.2302 12.6897C43.0997 12.5466 43.0044 12.376 42.9392 12.1803C42.8739 11.9846 42.8513 11.7689 42.8689 11.528L43.0947 8.38686L41.9255 8.30156L41.6997 11.4427C41.6696 11.8441 41.7148 12.2155 41.8302 12.5567C41.9456 12.8979 42.1162 13.1964 42.3395 13.4549C42.5653 13.7108 42.8388 13.9165 43.1599 14.0721C43.4811 14.2276 43.8373 14.3179 44.2287 14.3455C44.6176 14.3731 44.9839 14.3355 45.3251 14.2276C45.6663 14.1197 45.9674 13.9567 46.2258 13.7334C46.4843 13.5126 46.695 13.2391 46.8556 12.918C47.0161 12.5968 47.1115 12.2355 47.1391 11.8341L47.3649 8.69796Z" fill="#020202"/>
<path d="M49.4044 10.848C49.3291 11.1165 49.3116 11.3573 49.3492 11.5731C49.3868 11.7864 49.4621 11.9796 49.57 12.1477C49.6779 12.3183 49.8108 12.4688 49.9689 12.6043C50.1245 12.7373 50.285 12.8577 50.4481 12.9605C50.5761 13.0433 50.694 13.1186 50.8044 13.1914C50.9148 13.2641 51.0076 13.3369 51.0854 13.4147C51.1632 13.4924 51.2158 13.5727 51.2459 13.6605C51.2761 13.7483 51.2786 13.8412 51.2485 13.944C51.2058 14.0996 51.1105 14.2075 50.9675 14.2652C50.8245 14.3229 50.6413 14.3204 50.4205 14.2602C49.9413 14.1247 49.7155 13.7985 49.7406 13.2767L48.6116 13.4297C48.594 13.6982 48.6216 13.939 48.6919 14.1523C48.7621 14.3655 48.865 14.5537 49.003 14.7193C49.141 14.8824 49.3015 15.0204 49.4872 15.1308C49.6729 15.2411 49.8761 15.3265 50.0969 15.3892C50.3553 15.4619 50.6062 15.492 50.8495 15.482C51.0929 15.472 51.3137 15.4218 51.5144 15.329C51.7151 15.2361 51.8907 15.1032 52.0413 14.925C52.1918 14.7469 52.3047 14.5261 52.38 14.2627C52.4553 13.9992 52.4753 13.7634 52.4427 13.5577C52.4101 13.3519 52.3449 13.1663 52.242 13.0007C52.1416 12.8351 52.0137 12.6871 51.8581 12.5541C51.7051 12.4211 51.5395 12.2957 51.3639 12.1753C51.2259 12.0849 51.1004 11.9996 50.9875 11.9219C50.8721 11.8441 50.7768 11.7663 50.7015 11.6885C50.6237 11.6108 50.571 11.533 50.5384 11.4502C50.5058 11.3699 50.5033 11.2771 50.5334 11.1742C50.5736 11.0337 50.6614 10.9308 50.8019 10.8681C50.9424 10.8029 51.128 10.8029 51.3589 10.8681C51.5847 10.9308 51.7553 11.0362 51.8707 11.1867C51.9861 11.3348 52.0363 11.5455 52.0237 11.8215L53.1628 11.6986C53.1929 11.2018 53.0724 10.7853 52.804 10.4491C52.5355 10.1129 52.1617 9.87709 51.685 9.74412C51.4266 9.67136 51.1757 9.64124 50.9323 9.65128C50.689 9.66132 50.4657 9.71401 50.2625 9.80684C50.0592 9.89967 49.8836 10.0351 49.7356 10.2083C49.585 10.3764 49.4772 10.5896 49.4044 10.848Z" fill="#020202"/>
<path d="M62.527 14.8803L59.3281 12.8581L56.197 17.8157L59.3959 19.8379L60.0231 18.8444L57.8153 17.4494L58.44 16.4584L60.6503 17.8533L61.2751 16.8623L59.0672 15.4674L59.6919 14.4763L61.9023 15.8713L62.527 14.8803Z" fill="#020202"/>
<path d="M64.0318 19.9434L63.5903 19.5194L64.8021 18.2574L65.8031 19.2208C66.0089 19.419 66.1092 19.6298 66.1092 19.8581C66.1092 20.0864 66.0189 20.2896 65.8458 20.4703C65.6099 20.7162 65.344 20.8065 65.0505 20.7412L65.2286 19.8907L64.0971 19.6172L64.0318 19.9434ZM63.7508 21.2982L63.3168 23.3455L64.3178 24.2964L64.8146 21.8928C65.1433 21.9606 65.472 21.9455 65.8031 21.8427C66.1343 21.7398 66.4304 21.5541 66.6913 21.2807C66.892 21.0724 67.0425 20.8416 67.1429 20.5882C67.2432 20.3348 67.2909 20.0814 67.2859 19.8255C67.2809 19.5696 67.2232 19.3162 67.1103 19.0653C66.9999 18.8144 66.8343 18.5861 66.616 18.3753L64.7695 16.599L60.7075 20.824L61.553 21.6369L62.7774 20.3624L63.7508 21.2982Z" fill="#020202"/>
<path d="M72.8915 26.4663L72.2492 25.4853L69.0252 27.5978L70.513 22.8384L69.9535 21.9828L65.0486 25.1967L65.6934 26.1777L68.9148 24.0652L67.427 28.8246L67.9865 29.6802L72.8915 26.4663Z" fill="#020202"/>
<path d="M72.5023 29.53C72.2414 29.6328 72.0382 29.7633 71.8902 29.9214C71.7421 30.0819 71.6343 30.2551 71.564 30.4457C71.4938 30.6339 71.4536 30.8321 71.4411 31.0378C71.4285 31.2436 71.431 31.4418 71.4461 31.635C71.4586 31.7855 71.4687 31.9285 71.4762 32.059C71.4862 32.1894 71.4837 32.3099 71.4687 32.4177C71.4536 32.5256 71.421 32.6185 71.3708 32.6937C71.3206 32.769 71.2454 32.8292 71.1475 32.8668C70.997 32.9271 70.854 32.9145 70.721 32.8367C70.588 32.7564 70.4801 32.6109 70.3948 32.3977C70.2142 31.936 70.3371 31.5572 70.7687 31.2611L69.9658 30.4508C69.7425 30.5988 69.5644 30.7644 69.4364 30.95C69.3085 31.1357 69.2207 31.3314 69.173 31.5396C69.1253 31.7479 69.1128 31.9586 69.1379 32.1744C69.163 32.3901 69.2157 32.6034 69.2985 32.8167C69.3963 33.065 69.5217 33.2858 69.6773 33.474C69.8329 33.6622 70.006 33.8077 70.1992 33.9131C70.3923 34.0159 70.6056 34.0761 70.8389 34.0887C71.0723 34.1012 71.3156 34.0586 71.5715 33.9582C71.8274 33.8579 72.0256 33.7324 72.1712 33.5844C72.3167 33.4339 72.4246 33.2683 72.4948 33.0901C72.5651 32.9095 72.6077 32.7188 72.6203 32.5156C72.6328 32.3124 72.6353 32.1041 72.6228 31.8934C72.6127 31.7303 72.6052 31.5773 72.5977 31.4393C72.5927 31.3013 72.5952 31.1783 72.6102 31.0705C72.6253 30.9626 72.6554 30.8722 72.7005 30.797C72.7457 30.7217 72.8185 30.6665 72.9163 30.6264C73.0518 30.5737 73.1873 30.5837 73.3228 30.6565C73.4582 30.7292 73.5711 30.8773 73.6589 31.1006C73.7442 31.3188 73.7618 31.5195 73.7141 31.7002C73.664 31.8808 73.526 32.0489 73.3002 32.2045L74.0855 33.04C74.4994 32.764 74.7604 32.4177 74.8657 32.0013C74.9736 31.5848 74.936 31.1457 74.7528 30.6816C74.655 30.4332 74.5295 30.2124 74.374 30.0242C74.2184 29.8361 74.0428 29.688 73.8471 29.5827C73.6489 29.4773 73.4382 29.4171 73.2099 29.4045C72.9916 29.3895 72.7532 29.4321 72.5023 29.53Z" fill="#020202"/>
<path d="M75.5471 37.9244L75.9284 40.0093L77.0825 39.7985L76.1091 34.4746L74.955 34.6854L75.3363 36.7703L70.7224 37.6158L70.9332 38.7699L75.5471 37.9244Z" fill="#020202"/>
<path d="M9.32822 51.967L9.28556 51.3573L11.0318 51.2344L11.1296 52.6218C11.1497 52.9053 11.082 53.1311 10.9289 53.2992C10.7759 53.4673 10.5726 53.5602 10.3217 53.5777C9.98304 53.6028 9.72462 53.4899 9.55151 53.2465L10.254 52.7347L9.59918 51.7738L9.32822 51.967ZM8.20924 52.7849L6.51572 54.0118L6.62109 55.3892L8.60063 53.939C8.79883 54.21 9.05474 54.4182 9.36585 54.5662C9.67946 54.7118 10.0232 54.772 10.402 54.7444C10.6906 54.7243 10.959 54.654 11.2024 54.5336C11.4457 54.4132 11.6515 54.2551 11.8196 54.0619C11.9877 53.8688 12.1156 53.6404 12.2009 53.3795C12.2862 53.1186 12.3188 52.8376 12.2963 52.5365L12.1156 49.9799L6.26733 50.3914L6.35013 51.5605L8.1139 51.4376L8.20924 52.7849Z" fill="#020202"/>
<path d="M9.26766 61.6838L8.51749 62.3688L8.90638 63.5981L13.6783 59.2452L13.3497 58.2065L6.94189 57.3861L7.33078 58.6154L8.33685 58.7459L9.26766 61.6838ZM9.62142 58.9115L11.9823 59.2101L10.221 60.8107L9.62142 58.9115Z" fill="#020202"/>
<path d="M13.3895 63.1441C13.1462 63.2795 12.9605 63.4376 12.8376 63.6157C12.7121 63.7939 12.6293 63.982 12.5842 64.1777C12.5415 64.3734 12.5265 64.5766 12.5415 64.7824C12.5566 64.9881 12.5842 65.1838 12.6268 65.372C12.6594 65.52 12.687 65.6605 12.7146 65.7885C12.7422 65.9164 12.7548 66.0368 12.7548 66.1447C12.7548 66.2526 12.7347 66.3504 12.6946 66.4332C12.6544 66.516 12.5892 66.5838 12.4964 66.634C12.3559 66.7117 12.2129 66.7218 12.0698 66.659C11.9268 66.5988 11.8014 66.4684 11.6885 66.2677C11.4476 65.8336 11.5204 65.4422 11.9068 65.091L11.0036 64.396C10.8003 64.5716 10.6498 64.7598 10.5469 64.9605C10.4441 65.1612 10.3839 65.367 10.3638 65.5802C10.3437 65.7935 10.3613 66.0042 10.414 66.2125C10.4667 66.4232 10.5494 66.6289 10.6598 66.8271C10.7903 67.0605 10.9433 67.2612 11.124 67.4268C11.3021 67.5924 11.4953 67.7153 11.701 67.7906C11.9068 67.8683 12.1276 67.8985 12.3584 67.8809C12.5917 67.8633 12.8275 67.7881 13.0659 67.6551C13.3042 67.5221 13.4874 67.3716 13.6103 67.2035C13.7333 67.0354 13.8186 66.8573 13.8637 66.6691C13.9089 66.4809 13.9239 66.2852 13.9114 66.082C13.8963 65.8788 13.8713 65.673 13.8311 65.4648C13.7985 65.3042 13.7709 65.1562 13.7458 65.0182C13.7207 64.8827 13.7082 64.7598 13.7082 64.6494C13.7082 64.5415 13.7257 64.4462 13.7609 64.3659C13.796 64.2856 13.8612 64.2204 13.9515 64.1677C14.0795 64.0974 14.215 64.0874 14.358 64.1426C14.5035 64.1953 14.634 64.3283 14.7494 64.539C14.8623 64.7447 14.9074 64.9404 14.8849 65.1261C14.8598 65.3118 14.7469 65.4974 14.5411 65.6806L15.4318 66.4031C15.8056 66.0745 16.0164 65.6956 16.0666 65.2691C16.1167 64.8426 16.0214 64.4111 15.778 63.977C15.6476 63.7437 15.4945 63.543 15.3139 63.3774C15.1358 63.2118 14.9401 63.0889 14.7318 63.0111C14.5236 62.9333 14.3028 62.9032 14.077 62.9208C13.8512 62.9383 13.6229 63.0136 13.3895 63.1441Z" fill="#020202"/>
<path d="M13.7663 71.6194L16.2702 69.3087L15.0835 73.0495L15.7383 73.757L19.5594 72.8714L17.0555 75.1846L17.8508 76.0452L22.1586 72.071L21.3909 71.2381L16.5386 72.3671L18.0465 67.6152L17.2788 66.7822L12.9709 70.7589L13.7663 71.6194Z" fill="#020202"/>
<path d="M27.916 75.6964L26.9175 75.0817L25.2641 77.7638C25.1386 77.967 24.9931 78.1301 24.825 78.2505C24.6594 78.3709 24.4813 78.4512 24.2931 78.4939C24.105 78.534 23.9118 78.5365 23.7161 78.4964C23.5204 78.4587 23.3272 78.3784 23.1365 78.263C22.9458 78.1451 22.7878 78.0071 22.6648 77.8491C22.5419 77.691 22.4541 77.5179 22.4039 77.3297C22.3562 77.1415 22.3487 76.9484 22.3813 76.7451C22.4139 76.5419 22.4942 76.3387 22.6197 76.1355L24.2731 73.4534L23.2745 72.8388L21.6211 75.5208C21.4104 75.862 21.2774 76.2132 21.2222 76.5695C21.167 76.9258 21.1796 77.2695 21.2598 77.6007C21.3401 77.9319 21.4882 78.2405 21.7014 78.5265C21.9147 78.8125 22.1881 79.0584 22.5218 79.2641C22.8555 79.4698 23.1967 79.6028 23.548 79.6655C23.8992 79.7282 24.2429 79.7207 24.5741 79.6429C24.9053 79.5652 25.2189 79.4222 25.5099 79.2114C25.801 79.0007 26.0519 78.7247 26.2626 78.381L27.916 75.6964Z" fill="#020202"/>
<path d="M28.4628 77.7209C28.3675 77.9843 28.3324 78.2227 28.3575 78.4385C28.38 78.6542 28.4403 78.8499 28.5381 79.028C28.636 79.2062 28.7564 79.3668 28.9044 79.5098C29.0524 79.6528 29.203 79.7832 29.356 79.8986C29.4764 79.989 29.5918 80.0743 29.6947 80.1546C29.8001 80.2348 29.8879 80.3151 29.9607 80.3954C30.0309 80.4782 30.0811 80.5635 30.1037 80.6513C30.1288 80.7391 30.1237 80.8345 30.0861 80.9348C30.0309 81.0879 29.9306 81.1882 29.7825 81.2359C29.6345 81.2836 29.4539 81.2685 29.2381 81.1907C28.7714 81.0226 28.5682 80.6814 28.6284 80.1621L27.4894 80.2348C27.4542 80.5008 27.4618 80.7416 27.517 80.9624C27.5722 81.1807 27.6625 81.3764 27.7879 81.5495C27.9134 81.7226 28.0639 81.8707 28.242 81.9936C28.4202 82.1165 28.6184 82.2169 28.8316 82.2947C29.085 82.385 29.3309 82.4352 29.5743 82.4402C29.8176 82.4452 30.0435 82.4126 30.2492 82.3348C30.4549 82.257 30.6406 82.1341 30.8037 81.9685C30.9667 81.8029 31.0947 81.5897 31.1875 81.3312C31.2804 81.0728 31.318 80.842 31.3004 80.6338C31.2829 80.4255 31.2302 80.2373 31.1399 80.0642C31.0495 79.8911 30.9341 79.7356 30.7886 79.5926C30.6456 79.4495 30.49 79.3116 30.3219 79.1811C30.1915 79.0807 30.0736 78.9879 29.9632 78.9026C29.8528 78.8173 29.765 78.732 29.6922 78.6492C29.6194 78.5664 29.5718 78.4836 29.5467 78.4008C29.5191 78.318 29.5241 78.2252 29.5617 78.1248C29.6119 77.9894 29.7073 77.8915 29.8528 77.8363C29.9983 77.7811 30.1814 77.7937 30.4072 77.8765C30.628 77.9567 30.7911 78.0721 30.894 78.2302C30.9993 78.3858 31.0345 78.6015 31.0019 78.8725L32.1484 78.8298C32.2137 78.3356 32.1233 77.9141 31.88 77.5578C31.6366 77.2041 31.2803 76.9431 30.8137 76.775C30.5603 76.6847 30.3144 76.6345 30.0711 76.6295C29.8277 76.622 29.6019 76.6571 29.3911 76.7374C29.1829 76.8177 28.9972 76.9381 28.8392 77.0987C28.6761 77.2618 28.5532 77.47 28.4628 77.7209Z" fill="#020202"/>
<path d="M41.166 78.3934L37.3826 78.2403L37.1467 84.0987L40.9277 84.2517L40.9753 83.08L38.3661 82.9747L38.4112 81.803L41.023 81.9084L41.0707 80.7367L38.4589 80.6313L38.5066 79.4597L41.1183 79.565L41.166 78.3934Z" fill="#020202"/>
<path d="M44.8752 80.9249L44.2731 81.0253L43.9871 79.2992L45.3595 79.0734C45.6405 79.0282 45.8713 79.0734 46.0519 79.2088C46.2326 79.3468 46.3429 79.5375 46.3856 79.7859C46.4408 80.1221 46.3555 80.388 46.1272 80.5837L45.5526 79.9314L44.657 80.674L44.8752 80.9249ZM45.7935 81.9636L47.1734 83.5342L48.5357 83.3009L46.9075 81.4644C47.1583 81.2411 47.344 80.9676 47.4594 80.6439C47.5748 80.3203 47.6024 79.969 47.5397 79.5952C47.492 79.3092 47.3967 79.0508 47.2537 78.82C47.1107 78.5891 46.935 78.3985 46.7268 78.2479C46.5186 78.0974 46.2802 77.9945 46.0118 77.9318C45.7433 77.8716 45.4623 77.8666 45.1638 77.9142L42.6348 78.3307L43.5907 84.1138L44.7473 83.9231L44.4587 82.1794L45.7935 81.9636Z" fill="#020202"/>
<path d="M53.4663 75.1974L52.3825 75.644L53.8502 79.2042L49.4546 76.8508L48.5112 77.2397L50.7467 82.6589L51.8305 82.2123L50.3603 78.6522L54.7559 81.0056L55.7018 80.6167L53.4663 75.1974Z" fill="#020202"/>
<path d="M55.5496 75.8798C55.7077 76.1106 55.8808 76.2787 56.069 76.3866C56.2572 76.4944 56.4529 76.5622 56.6511 76.5873C56.8518 76.6124 57.0525 76.6073 57.2557 76.5747C57.4589 76.5396 57.6521 76.4944 57.8353 76.4367C57.9808 76.3916 58.1163 76.3489 58.2417 76.3113C58.3672 76.2737 58.4851 76.2486 58.593 76.2385C58.7008 76.2285 58.7987 76.241 58.884 76.2712C58.9693 76.3038 59.0446 76.364 59.1023 76.4518C59.1926 76.5848 59.2152 76.7253 59.1675 76.8733C59.1198 77.0213 59.0019 77.1593 58.8112 77.2873C58.3998 77.5683 58.0034 77.5306 57.622 77.1769L57.0123 78.1403C57.2055 78.326 57.4088 78.4589 57.617 78.5442C57.8252 78.627 58.0385 78.6697 58.2492 78.6697C58.4625 78.6697 58.6707 78.6346 58.874 78.5618C59.0772 78.489 59.2754 78.3887 59.4636 78.2607C59.6843 78.1102 59.87 77.9371 60.018 77.7439C60.166 77.5507 60.2689 77.3475 60.3291 77.1367C60.3868 76.9235 60.3969 76.7027 60.3567 76.4744C60.3166 76.2436 60.2212 76.0152 60.0657 75.7894C59.9101 75.5636 59.7446 75.3955 59.5664 75.2877C59.3883 75.1798 59.2026 75.112 59.0119 75.0844C58.8213 75.0568 58.6231 75.0593 58.4224 75.092C58.2216 75.1246 58.0184 75.1697 57.8152 75.2274C57.6571 75.2751 57.5116 75.3153 57.3786 75.3529C57.2457 75.3905 57.1252 75.4131 57.0149 75.4231C56.9045 75.4332 56.8116 75.4231 56.7288 75.3955C56.646 75.3679 56.5733 75.3102 56.5131 75.2224C56.4303 75.102 56.4102 74.969 56.4503 74.8185C56.4905 74.668 56.6084 74.5275 56.8066 74.392C56.9998 74.259 57.1905 74.1963 57.3786 74.2038C57.5668 74.2113 57.76 74.3067 57.9632 74.4948L58.6005 73.5415C58.2392 73.2002 57.8428 73.0246 57.4138 73.0146C56.9847 73.0045 56.5632 73.14 56.1543 73.4185C55.9335 73.569 55.7478 73.7422 55.5998 73.9354C55.4518 74.1285 55.3464 74.3318 55.2887 74.5475C55.231 74.7633 55.221 74.9841 55.2586 75.2074C55.3038 75.4357 55.3991 75.659 55.5496 75.8798Z" fill="#020202"/>
<path d="M61.5747 70.347L63.0624 68.8366L62.227 68.0137L58.4285 71.8674L59.2639 72.6903L60.7517 71.1824L64.0936 74.4741L64.9165 73.6387L61.5747 70.347Z" fill="#020202"/>
<path d="M20.011 39.7569L20.3522 39.8548C19.7902 41.8443 19.5218 43.8464 19.5218 45.8134C19.5218 55.3548 25.8167 64.1285 35.4534 66.8507C37.443 67.4127 39.4451 67.6812 41.4121 67.6812C50.9535 67.6812 59.7272 61.3863 62.4494 51.7495C63.0114 49.76 63.2798 47.7578 63.2798 45.7909C63.2798 36.2494 56.9849 27.4758 47.3482 24.7536C45.3586 24.1916 43.3565 23.9231 41.3895 23.9231C31.8481 23.9231 23.0744 30.218 20.3522 39.8548L20.011 39.7569L19.6698 39.6591C22.4823 29.7087 31.537 23.2106 41.392 23.2106C43.4242 23.2106 45.4916 23.4866 47.5439 24.0661C57.4943 26.8786 63.9924 35.9333 63.9924 45.7883C63.9924 47.8206 63.7164 49.8879 63.1343 51.9402C60.3218 61.8906 51.2671 68.3887 41.4121 68.3887C39.3799 68.3887 37.3125 68.1127 35.2602 67.5306C25.3099 64.7181 18.8118 55.6634 18.8118 45.8084C18.8118 43.7762 19.0878 41.7088 19.6698 39.654L20.011 39.7569Z" fill="#020202"/>
<path d="M62.899 51.8768L62.5578 51.7789C63.1198 49.7894 63.3883 47.7872 63.3883 45.8203C63.3883 36.2788 57.0934 27.5052 47.4567 24.783C45.4671 24.221 43.465 23.9525 41.498 23.9525C31.9566 23.9525 23.1829 30.2474 20.4607 39.8842C19.8987 41.8737 19.6303 43.8758 19.6303 45.8453C19.6303 55.3868 25.9251 64.1604 35.5594 66.8826C37.5489 67.4446 39.5511 67.7131 41.518 67.7131C51.0595 67.7131 59.8331 61.4182 62.5553 51.7814L62.899 51.8768L63.2403 51.9746C60.4278 61.925 51.3731 68.4231 41.518 68.4231C39.4858 68.4231 37.4185 68.1471 35.3662 67.565C25.4158 64.7526 18.9177 55.6979 18.9177 45.8428C18.9177 43.8106 19.1937 41.7433 19.7758 39.6885C22.5883 29.7381 31.643 23.24 41.498 23.24C43.5302 23.24 45.5975 23.516 47.6498 24.0955C57.6002 26.908 64.0983 35.9627 64.0983 45.8178C64.0983 47.85 63.8223 49.9173 63.2403 51.9721L62.899 51.8768Z" fill="#020202"/>
<path d="M24.3155 32.1369C24.2729 32.3226 24.2453 32.5083 24.2377 32.6939C24.2352 32.7466 24.2327 32.7968 24.2327 32.8495C24.2327 33.2057 24.2979 33.552 24.4359 33.8781C24.6617 34.4075 25.0682 34.839 25.5775 35.1602C26.0868 35.4788 26.699 35.6795 27.3036 35.7448C27.4918 35.7648 27.68 35.7749 27.8681 35.7749C28.9144 35.7749 29.9882 35.4838 31.0394 35.1376C32.1734 34.7638 33.0917 34.5154 34.0627 34.1365C35.0336 33.7577 36.0648 33.2484 37.4371 32.3402C37.6278 32.2147 37.7533 32.0717 37.8361 31.9262C37.9164 31.7807 37.954 31.6276 37.954 31.4771C37.954 31.2287 37.8511 30.9803 37.6604 30.7947C37.4698 30.609 37.1938 30.481 36.82 30.4785L36.7572 30.4785L36.7497 30.4785L36.7422 30.4785L36.7321 30.4785L36.7221 30.4785C36.6192 30.481 35.4225 30.4986 33.3501 31.9212C32.1534 32.7441 31.2953 33.7853 30.7283 35.1777C30.5778 35.544 30.4975 35.9354 30.4975 36.3143C30.4975 36.6881 30.5753 37.0494 30.7434 37.3781C30.8989 37.6816 31.0971 37.915 31.3355 38.1056C31.6917 38.3892 32.1458 38.5723 32.6577 38.6802C33.167 38.7881 33.729 38.8232 34.2834 38.8232C34.4465 38.8232 34.6096 38.8207 34.7677 38.8157C36.6192 38.763 38.5712 38.5999 40.3851 38.1734C42.2016 37.7469 43.8775 37.0544 45.1972 35.9555C45.4506 35.7422 45.5485 35.4888 45.551 35.2229C45.551 34.967 45.4481 34.7061 45.27 34.5154C45.0893 34.3247 44.846 34.2018 44.5349 34.2018L44.4897 34.2018C43.5464 34.2369 42.5729 34.5455 41.6822 35.0473C40.7916 35.5491 39.9862 36.2415 39.3765 37.0318C38.6013 38.0329 38.0368 39.3049 38.0393 40.4841C38.0393 41.016 38.1497 41.5278 38.4006 42.0095C38.6515 42.4912 39.0479 42.9428 39.6375 43.3468C40.1894 43.7231 40.8342 43.964 41.5091 44.107C42.2217 44.26 42.9894 44.3378 43.7772 44.3378C46.0728 44.3403 48.5115 43.6654 50.1699 42.2855C50.338 42.1475 50.4459 41.9995 50.5186 41.849C50.5889 41.6984 50.6215 41.5429 50.6215 41.3848C50.6215 41.0612 50.481 40.725 50.2502 40.4766C50.0194 40.2282 49.7183 40.0777 49.4047 40.0777C49.1964 40.0777 48.9731 40.1404 48.7323 40.3085C48.5918 40.4088 48.4588 40.5192 48.3384 40.6422C47.5431 41.445 47.1793 42.6242 47.1793 43.8185C47.1793 44.0944 47.1993 44.3704 47.237 44.6414C47.4578 46.2471 48.3208 47.7299 49.5402 48.8212C50.7595 49.9126 52.3326 50.6026 53.9508 50.6427L53.9408 50.999L53.5946 51.0768C53.5218 50.7631 53.4892 50.4445 53.4892 50.1309C53.4917 48.8162 54.0738 47.5517 54.9795 46.6084C55.8852 45.665 57.1221 45.0353 58.4619 45.0328C58.5396 45.0328 58.6174 45.0353 58.6952 45.0403C59.9973 45.1131 61.1539 45.7829 61.9844 46.7313C62.8148 47.6822 63.3292 48.9191 63.3317 50.1811C63.3317 50.6603 63.2564 51.142 63.0933 51.6086L62.4209 51.3753C62.5564 50.9889 62.6192 50.585 62.6192 50.1811C62.6217 49.1173 62.1751 48.0284 61.4475 47.2005C60.7224 46.37 59.7289 45.8105 58.6551 45.7503C58.5898 45.7478 58.5246 45.7453 58.4594 45.7453C57.3504 45.7453 56.2816 46.2772 55.4888 47.1026C54.696 47.9281 54.1967 49.0345 54.1967 50.1334C54.1967 50.3968 54.2243 50.6603 54.2845 50.9237L54.3849 51.3703L53.9283 51.3577C52.1168 51.3101 50.3957 50.5474 49.061 49.3556C47.7287 48.1639 46.7753 46.5381 46.527 44.7417C46.4843 44.4382 46.4642 44.1296 46.4642 43.821C46.4642 42.4887 46.8657 41.1239 47.8266 40.1454C47.9771 39.9924 48.1427 39.8544 48.3158 39.7314C48.662 39.4856 49.0384 39.3676 49.3972 39.3701C49.9416 39.3701 50.4233 39.6261 50.7645 39.9974C51.1057 40.3687 51.3215 40.863 51.324 41.3873C51.3265 41.8991 51.1007 42.436 50.6165 42.835C48.78 44.3554 46.1983 45.0478 43.7697 45.0503C42.9367 45.0503 42.1188 44.9675 41.3536 44.8045C40.6109 44.6464 39.8783 44.3754 39.2285 43.9364C38.5536 43.4772 38.0694 42.9328 37.7608 42.3407C37.4522 41.7511 37.3167 41.1164 37.3167 40.4866C37.3192 39.0841 37.959 37.6967 38.802 36.6003C39.4744 35.7297 40.3475 34.9795 41.3235 34.4301C42.2969 33.8831 43.3732 33.5369 44.4521 33.4943C44.4772 33.4943 44.4997 33.4918 44.5223 33.4918C45.0341 33.4892 45.4782 33.7075 45.7768 34.0312C46.0779 34.3548 46.2485 34.7813 46.251 35.2229C46.2535 35.682 46.0553 36.1612 45.6388 36.5025C44.2037 37.6967 42.4224 38.4218 40.5357 38.8658C38.649 39.3099 36.6544 39.473 34.7752 39.5257C34.6096 39.5307 34.4415 39.5332 34.2684 39.5332C33.4931 39.5332 32.6702 39.473 31.9225 39.2196C31.5487 39.0917 31.1925 38.9135 30.8788 38.6651C30.5652 38.4168 30.2943 38.0981 30.0935 37.7017C29.8703 37.2627 29.7724 36.7885 29.7724 36.3168C29.7724 35.8351 29.8753 35.3584 30.0559 34.9118C30.6681 33.3989 31.634 32.2298 32.9336 31.3366C35.1039 29.8413 36.4637 29.7685 36.7071 29.7685L36.7271 29.7685L36.7321 29.7685L36.7271 30.0671L36.7271 29.7685L36.7321 29.7685L36.7271 30.0671L36.7271 29.7685L36.7271 30.1248L36.7146 29.7685C36.7447 29.7685 36.7748 29.766 36.8049 29.766C37.3493 29.766 37.8185 29.9642 38.1422 30.2828C38.4658 30.599 38.649 31.028 38.649 31.4746C38.649 31.743 38.5812 32.0165 38.4407 32.2699C38.3002 32.5208 38.0895 32.7491 37.8135 32.9323C36.4085 33.8606 35.3221 34.4 34.306 34.7964C33.2899 35.1928 32.3566 35.4437 31.2476 35.81C30.1738 36.1637 29.0323 36.4824 27.8531 36.4824C27.6398 36.4824 27.4266 36.4723 27.2133 36.4498C26.5058 36.3745 25.7958 36.1437 25.1861 35.7623C24.5764 35.381 24.0596 34.8441 23.7661 34.1566C23.5854 33.7351 23.5051 33.291 23.5051 32.8495C23.5051 32.7842 23.5076 32.7215 23.5101 32.6563C23.5227 32.428 23.5553 32.2022 23.6055 31.9789L24.3155 32.1369Z" fill="#020202"/>
<path d="M23.4096 44.5182C23.4773 46.6131 24.2174 48.6178 25.4016 50.369C26.5858 52.1202 28.2166 53.6155 30.0507 54.6768C33.4402 56.6438 37.457 57.3312 41.4386 57.3312C41.7748 57.3312 42.111 57.3262 42.4472 57.3162C44.2762 57.266 46.1228 57.0678 47.6658 56.2373L48.002 56.8646C46.2884 57.7803 44.3314 57.9735 42.4673 58.0262C42.1261 58.0362 41.7824 58.0413 41.4386 58.0413C37.3792 58.0413 33.237 57.3463 29.6944 55.2915C27.77 54.175 26.0615 52.612 24.812 50.7654C23.5626 48.9188 22.7723 46.7863 22.697 44.5383L23.4096 44.5182Z" fill="#020202"/>
<path d="M36.9761 39.2568C34.4145 42.1747 31.4364 45.5567 28.9701 48.5423L28.6966 48.3165L28.8547 47.9979C30.7464 48.9387 32.6733 49.8119 34.6302 50.6122L34.3618 51.2695C32.3898 50.4617 30.4479 49.581 28.5411 48.6327L28.1396 48.4345L28.4257 48.0882C30.9045 45.0901 33.8851 41.703 36.4467 38.7852L36.9761 39.2568Z" fill="#020202"/>
</svg>
